<?xml version="1.0" standalone="no"?>
<!DOCTYPE svg PUBLIC "-//W3C//DTD SVG 20010904//EN"
 "http://www.w3.org/TR/2001/REC-SVG-20010904/DTD/svg10.dtd">
<svg version="1.0" xmlns="http://www.w3.org/2000/svg"
 width="300.000000pt" height="214.000000pt" viewBox="0 0 300.000000 214.000000"
 preserveAspectRatio="xMidYMid meet">

<g transform="translate(0.000000,214.000000) scale(0.100000,-0.100000)"
fill="currentColor" stroke="none">
<path fill="#044B97" d="M1045 2090 l-39 -40 39 -40 39 -40 40 40 40 40 -20 26 c-11 15 -29
33 -40 40 -18 13 -24 10 -59 -26z"/>
<path fill="#044B97" d="M1216 2071 l-38 -39 46 -43 46 -43 -37 -38 -37 -38 42 -43 42 -42 43
43 42 43 -48 46 -49 46 36 36 36 37 -38 37 c-21 20 -40 37 -43 37 -3 0 -22
-18 -43 -39z"/>
<path fill="#044B97" d="M460 1503 c-248 -245 -450 -451 -450 -456 0 -6 201 -213 448 -459
522 -524 508 -513 672 -513 151 0 162 8 494 335 153 151 309 309 347 351 l69
76 -125 124 c-69 68 -129 125 -134 127 -5 1 -125 -113 -267 -254 -143 -141
-277 -270 -298 -285 -40 -30 -96 -38 -126 -19 -8 5 -133 127 -277 272 l-263
263 312 312 312 312 -38 45 c-20 25 -40 46 -43 46 -3 0 -21 -11 -38 -24 l-32
-25 -34 35 -33 34 23 31 22 30 -36 45 c-20 24 -41 44 -46 44 -5 0 -212 -201
-459 -447z"/>
<path fill="#044B97" d="M1055 1910 l-39 -40 42 -43 42 -42 42 42 42 43 -39 40 c-21 22 -42
40 -45 40 -3 0 -24 -18 -45 -40z"/>
<path fill="#1491D2" d="M1794 1881 c-94 -24 -125 -50 -479 -402 l-350 -349 130 -130 130
-130 240 240 c325 326 357 352 419 336 14 -3 145 -126 296 -277 l272 -272
-313 -313 -312 -313 89 -93 c49 -52 108 -110 131 -131 l41 -38 451 448 c248
246 451 455 451 463 0 8 -199 213 -442 456 -401 399 -449 444 -511 474 -54 26
-83 34 -140 36 -40 2 -86 0 -103 -5z"/>
</g>
</svg>
